<svg xmlns="http://www.w3.org/2000/svg" viewBox="0 0 430.63 131.13"><defs><style>.cls-1{fill:#fff;}.cls-2{fill:#27cc8d;}</style></defs><title>CIQ_logo_w</title><g id="Layer_2" data-name="Layer 2"><g id="Layer_1-2" data-name="Layer 1"><path class="cls-1" d="M39.51.45c18.8,0,28.32,10.19,28.32,10.19l-4.14,5.71a37,37,0,0,0-24-8.73c-18.42,0-31.63,14.32-31.63,32.9,0,18.8,13.21,34.14,31.9,34.14A36.8,36.8,0,0,0,65.48,64.17L70,69.62a42,42,0,0,1-30.11,12.2C16.57,81.82,0,63.58,0,40.63S17,.45,39.51.45Z"/><path class="cls-1" d="M80.46.45h6.85V37.17c0,2.32-.2,4.13-.2,4.13h.2c1.91-4.83,8.66-12.59,20.14-12.59,12.49,0,16.92,7.15,16.92,19.64V80.61h-6.85V50.17c0-8-1.21-15-11-15a19.23,19.23,0,0,0-18.43,14.4,23.85,23.85,0,0,0-.81,6.75V80.61H80.46Z"/><path class="cls-1" d="M164.5,49.29h2.82V48c0-9.77-5.34-13.09-12.59-13.09a24.67,24.67,0,0,0-14.3,4.83l-3.22-5.24s6.65-5.74,18-5.74c12.19,0,18.94,6.75,18.94,19.44V80.61H167.6V75.07a40.11,40.11,0,0,1,.2-4.23h-.2a18.29,18.29,0,0,1-16.92,11c-8.46,0-17.22-4.94-17.22-15C133.47,49.69,155.73,49.29,164.5,49.29ZM151.8,76c9.67,0,15.51-10.07,15.51-18.84V54.93H164.4c-8,0-23.87.3-23.87,11.48C140.52,71.17,144.25,76,151.8,76Z"/><path class="cls-1" d="M186.82,29.95h6.75v9a39.94,39.94,0,0,1-.2,4h.2c2.42-7.66,8.06-13.5,16-13.5a13.69,13.69,0,0,1,2.72.3V36.5a17.33,17.33,0,0,0-2.52-.2c-7.15,0-12.49,5.64-14.71,13.09a33.39,33.39,0,0,0-1.41,9.87V80.61H186.8Z"/><path class="cls-1" d="M226.89,36.29h-6.65V30.55H227V15.95h6.75v14.6h12.69v5.74h-12.7V61.47c0,11.89,7.56,13.4,11.38,13.4a11.73,11.73,0,0,0,2.32-.2v6.14a18,18,0,0,1-2.92.2c-5.84,0-17.63-1.91-17.63-18.84Z"/><path class="cls-1" d="M416.08,62.66a40.41,40.41,0,1,0-10.46,10.79A26.19,26.19,0,0,0,424.36,81h6.27V66h-6.27A11.57,11.57,0,0,1,416.08,62.66Zm-59-22.16a25.32,25.32,0,1,1,48.82,9.39c-5.14-6.49-11.9-12.72-23.36-12.72H378.7v15h3.84c5.79,0,9,3.45,13.57,9.59a25.3,25.3,0,0,1-39-21.28Z"/><path class="cls-1" d="M331.47,65.81h-5.84a1.72,1.72,0,0,1-1.72-1.72h0V16.9a1.72,1.72,0,0,1,1.71-1.73h5.85V.17H301.34v15h5.84a1.72,1.72,0,0,1,1.72,1.72h0v47.2a1.72,1.72,0,0,1-1.72,1.72h-5.84v15h30.13Z"/><rect class="cls-2" x="273.04" y="0.17" width="6.64" height="130.96"/><rect class="cls-2" x="251.4" y="102.67" width="179.23" height="6.64"/></g></g></svg>