<svg xmlns="http://www.w3.org/2000/svg" viewBox="0 0 139.14 139.14"><title>crosshair</title><g id="Layer_2" data-name="Layer 2"><g id="Layer_1-2" data-name="Layer 1"><path d="M73.31,3.92a4,4,0,0,0-5-3.8,4.12,4.12,0,0,0-3,4V49.49a4,4,0,0,0,4,4h0a4,4,0,0,0,4-4Z"/><path d="M3.92,65.49a4,4,0,0,0-3.8,5,4.12,4.12,0,0,0,4,3H50.31a4,4,0,0,0,4-4h0a4,4,0,0,0-4-4Z"/><path d="M135,65.49H89.31a4,4,0,0,0-4,4h0a4,4,0,0,0,4,4h45.91a4,4,0,0,0,3.8-5A4.12,4.12,0,0,0,135,65.49Z"/><path d="M65.31,135.22a4,4,0,0,0,5,3.8,4.12,4.12,0,0,0,3-4V89.49a4,4,0,0,0-4-4h0a4,4,0,0,0-4,4Z"/></g></g></svg>